# xmcd CD database file
#
# Track frame offsets:
#	150
#	21717
#	35395
#	55070
#	72742
#	89675
#	102990
#	116965
#	134420
#	143827
#	155995
#	175387
#	193615
#	208070
#	237577
#
# Disc length: 3523 seconds
#
# Revision: 1
# Processed by: cddbd v1.5.2PL0 Copyright (c) Steve Scherf et al.
# Submitted via: CDex 1.40Release
#
DISCID=f50dc10f
DTITLE=Red Cardell - Rouge
DYEAR=1993
DGENRE=World Music
TTITLE0=Pol Tax Rap
TTITLE1=We've got to be alone
TTITLE2=Conlie
TTITLE3=Last Train
TTITLE4=I closed my eyes
TTITLE5=Politician Disease
TTITLE6=An hûnvre
TTITLE7=Cardell's blues
TTITLE8=Cirrhose
TTITLE9=Dub for it
TTITLE10=Metal Frame
TTITLE11=Kas Ha Bar
TTITLE12=Camel's Walk
TTITLE13=Ur Vro
TTITLE14=Chow
EXTD=YEAR: 1993
EXTT0=
EXTT1=
EXTT2=
EXTT3=
EXTT4=
EXTT5=
EXTT6=
EXTT7=
EXTT8=
EXTT9=
EXTT10=
EXTT11=
EXTT12=
EXTT13=
EXTT14=
PLAYORDER=
